<svg id="Layer_1" data-name="Layer 1" xmlns="http://www.w3.org/2000/svg" viewBox="0 0 64 74">
  <defs>
    <style>
      .cls-1 {
        fill: #221f1f;
      }

      .cls-2 {
        fill: #61bdbf;
      }

      .cls-3 {
        fill: none;
        stroke: #61bdbf;
        stroke-miterlimit: 10;
        stroke-width: 2px;
      }
    </style>
  </defs>
  <title>about-us-myriad_1</title>
  <g>
    <polygon class="cls-1" points="23.171 31.533 31.647 44.317 34.241 44.317 42.717 31.533 42.717 50.384 47.117 50.384 47.117 23.52 43.134 23.52 32.99 38.944 22.754 23.52 17.705 23.52 23.171 31.533"/>
    <path class="cls-2" d="M17.103,50.43062c-.27791.09264-.7411.09264-.7411-.32423l-.04632-19.36116a.393.393,0,0,1,.32423-.37055.51426.51426,0,0,1,.5095.18528L27.20044,45.65981a.32108.32108,0,0,1-.139.46319C27.1078,46.16931,17.14931,50.3843,17.103,50.43062Z"/>
  </g>
  <ellipse class="cls-3" cx="32" cy="37" rx="30" ry="29.96774"/>
</svg>
